<svg width="1651" height="1838" xmlns="http://www.w3.org/2000/svg" xmlns:xlink="http://www.w3.org/1999/xlink" xml:space="preserve" overflow="hidden"><defs><filter id="fx0" x="-10%" y="-10%" width="120%" height="120%" filterUnits="userSpaceOnUse" primitiveUnits="userSpaceOnUse"><feComponentTransfer color-interpolation-filters="sRGB"><feFuncR type="discrete" tableValues="0.705882 0.705882"/><feFuncG type="discrete" tableValues="0.780392 0.780392"/><feFuncB type="discrete" tableValues="0.905882 0.905882"/><feFuncA type="linear" slope="0.670588" intercept="0"/></feComponentTransfer><feGaussianBlur stdDeviation="7.25255 7.25694"/></filter><clipPath id="clip1"><rect x="971" y="401" width="1651" height="1838"/></clipPath><clipPath id="clip2"><rect x="-7.49545" y="-7.5" width="426.992" height="477"/></clipPath><clipPath id="clip3"><rect x="0" y="0" width="413" height="460"/></clipPath></defs><g clip-path="url(#clip1)" transform="translate(-971 -401)"><g clip-path="url(#clip2)" filter="url(#fx0)" transform="matrix(4.00242 0 0 4 970 400)"><g clip-path="url(#clip3)" transform="translate(-2.84217e-14 0)"><path d="M22.1191 410.641C97.7401 313.305 137.448 279.106 130.733 22.175 259.493 110.742 368.983 273.845 390.881 387.842L333.946 437.825C287.522 289.044 280.515 251.63 180.66 138.802 188.544 339.612 144.748 373.811 93.9443 436.948L22.1191 410.641Z" fill="#001259" fill-rule="evenodd"/></g></g><path d="M1073 2028.4C1369.73 1646.69 1525.55 1512.57 1499.19 505 2004.44 852.321 2434.07 1491.94 2520 1938.99L2296.59 2135C2114.43 1551.55 2086.93 1404.82 1695.11 962.362 1726.04 1749.85 1554.19 1883.97 1354.84 2131.56L1073 2028.4Z" fill="#001259" fill-rule="evenodd"/></g></svg>